<?xml version="1.0" standalone="no"?>
<!DOCTYPE svg PUBLIC "-//W3C//DTD SVG 20010904//EN"
 "http://www.w3.org/TR/2001/REC-SVG-20010904/DTD/svg10.dtd">
<svg version="1.0" xmlns="http://www.w3.org/2000/svg"
 width="79.000000pt" height="36.000000pt" viewBox="0 0 79.000000 36.000000"
 preserveAspectRatio="xMidYMid meet">

<g transform="translate(0.000000,36.000000) scale(0.100000,-0.100000)"
fill="#000000" stroke="none">
<path d="M25 275 l0 -76 59 3 c68 3 90 23 68 58 -9 16 -10 24 0 39 20 33 -5
51 -71 51 l-56 0 0 -75z m90 30 c0 -5 -10 -11 -22 -13 -16 -2 -23 2 -23 13 0
11 7 15 23 13 12 -2 22 -7 22 -13z m5 -60 c0 -9 -9 -15 -25 -15 -16 0 -25 6
-25 15 0 9 9 15 25 15 16 0 25 -6 25 -15z"/>
<path d="M190 275 l0 -75 50 0 c43 0 50 3 50 19 0 15 -6 19 -27 18 -28 -2 -28
-1 -28 56 0 53 -1 57 -22 57 -22 0 -23 -4 -23 -75z"/>
<path d="M332 275 l-31 -75 24 0 c12 0 25 7 29 15 3 8 17 15 31 15 14 0 28 -7
31 -15 4 -8 17 -15 29 -15 l24 0 -31 75 c-25 62 -34 75 -53 75 -19 0 -28 -13
-53 -75z m68 -7 c0 -5 -7 -8 -15 -8 -15 0 -20 21 -8 33 7 7 23 -11 23 -25z"/>
<path d="M495 325 c-49 -48 -16 -125 55 -125 41 0 64 18 50 40 -7 11 -11 11
-24 1 -18 -15 -52 -6 -60 16 -16 40 29 78 60 52 13 -10 17 -10 24 1 26 43 -65
56 -105 15z"/>
<path d="M630 275 c0 -74 0 -75 26 -75 18 0 24 4 21 13 -3 8 -1 20 3 28 7 10
13 7 30 -14 12 -15 28 -27 35 -27 26 0 26 21 0 51 l-26 31 26 34 26 34 -24 0
c-15 0 -31 -10 -41 -25 -9 -14 -21 -25 -27 -25 -7 0 -9 10 -5 25 6 22 3 25
-19 25 -24 0 -25 -2 -25 -75z"/>
<path d="M26 141 c-25 -27 -12 -57 29 -71 19 -6 35 -16 35 -21 0 -13 -47 -11
-55 1 -5 8 -11 7 -21 -1 -36 -30 50 -62 91 -35 40 26 33 61 -16 80 -29 12 -39
20 -32 27 8 8 18 7 33 -1 18 -10 24 -9 31 1 13 21 11 26 -13 33 -40 10 -64 6
-82 -13z"/>
<path d="M160 90 c0 -38 -1 -73 -2 -77 -2 -5 7 -9 20 -11 19 -3 22 1 22 27 0
28 3 31 30 31 27 0 30 -3 30 -31 0 -25 4 -30 21 -27 18 3 21 10 22 81 2 74 1
77 -20 77 -19 0 -23 -6 -23 -30 0 -27 -3 -30 -30 -30 -27 0 -30 3 -30 30 0 23
-4 30 -20 30 -18 0 -20 -7 -20 -70z"/>
<path d="M340 80 l0 -80 55 0 c44 0 56 4 65 20 10 19 8 20 -35 20 -54 0 -59
23 -7 28 43 4 42 30 0 34 -44 4 -37 23 8 22 27 -1 34 2 32 15 -2 12 -17 17
-61 19 l-57 3 0 -81z"/>
<path d="M496 83 l1 -78 53 -3 c36 -2 56 1 61 10 15 23 10 28 -32 28 -47 0
-50 22 -4 30 39 7 37 24 -2 28 -22 2 -33 9 -33 19 0 13 8 14 41 9 35 -6 40 -4
35 10 -3 8 -6 18 -6 20 0 2 -26 4 -57 4 l-58 0 1 -77z"/>
<path d="M650 79 c0 -78 1 -80 23 -77 14 2 22 10 22 23 0 14 9 21 34 26 37 8
51 23 51 56 0 31 -37 53 -87 53 l-43 0 0 -81z m79 42 c19 -12 6 -41 -19 -41
-13 0 -20 7 -20 18 0 31 14 39 39 23z"/>
</g>
</svg>
