<?xml version="1.0" standalone="no"?>
<!DOCTYPE svg PUBLIC "-//W3C//DTD SVG 20010904//EN"
 "http://www.w3.org/TR/2001/REC-SVG-20010904/DTD/svg10.dtd">
<svg version="1.0" xmlns="http://www.w3.org/2000/svg"
 width="66.000000pt" height="76.000000pt" viewBox="0 0 66.000000 76.000000"
 preserveAspectRatio="xMidYMid meet">

<g transform="translate(0.000000,76.000000) scale(0.100000,-0.100000)"
fill="#000000" stroke="none">
<path d="M287 730 c-14 -11 -36 -20 -50 -20 -29 0 -67 -42 -67 -73 0 -11 -7
-29 -17 -39 -21 -23 -21 -73 0 -96 10 -10 17 -29 17 -41 0 -29 43 -71 72 -71
13 0 32 -7 42 -15 26 -19 80 -19 96 0 7 8 23 15 35 15 33 0 75 37 75 67 0 14
9 36 20 50 11 14 20 33 20 43 0 10 -9 29 -20 43 -11 14 -20 37 -20 51 0 33
-33 66 -66 66 -14 0 -37 9 -51 20 -14 11 -33 20 -43 20 -10 0 -29 -9 -43 -20z
m102 -108 c63 -31 80 -56 35 -50 -25 2 -29 -1 -32 -22 -6 -47 -24 -80 -49 -86
-33 -9 -64 23 -72 73 -5 30 -11 38 -29 38 -38 0 -27 19 29 47 30 15 56 27 59
27 3 0 30 -12 59 -27z"/>
<path d="M20 226 l0 -66 39 0 c46 0 89 29 75 51 -5 8 -9 28 -9 44 0 29 -2 30
-52 33 l-53 3 0 -65z m73 29 c1 -5 -6 -11 -15 -13 -11 -2 -18 3 -18 13 0 17
30 18 33 0z m5 -52 c2 -8 -5 -13 -17 -13 -12 0 -21 6 -21 16 0 18 31 15 38 -3z"/>
<path d="M160 225 l0 -65 33 0 c31 0 57 14 57 31 0 4 -12 7 -27 6 -27 -2 -28
0 -27 46 0 39 -3 47 -18 47 -16 0 -18 -9 -18 -65z"/>
<path d="M277 230 c-26 -61 -21 -86 12 -56 22 20 45 20 61 1 7 -8 19 -15 27
-15 16 0 13 15 -18 86 -28 63 -49 59 -82 -16z m49 -17 c-11 -11 -19 6 -11 24
8 17 8 17 12 0 3 -10 2 -21 -1 -24z"/>
<path d="M417 278 c-9 -7 -19 -25 -22 -40 -5 -21 -1 -33 19 -52 27 -28 46 -32
77 -16 30 16 23 33 -10 27 -33 -7 -55 11 -49 40 2 13 13 18 35 19 39 0 53 11
33 24 -21 14 -63 12 -83 -2z"/>
<path d="M530 224 c0 -57 2 -65 17 -62 10 2 18 10 19 18 2 32 5 32 30 5 34
-37 57 -19 25 21 l-21 27 20 22 c25 27 25 35 0 35 -10 0 -24 -9 -30 -20 -6
-11 -15 -20 -21 -20 -6 0 -8 9 -4 20 5 16 2 20 -14 20 -19 0 -21 -6 -21 -66z"/>
<path d="M22 118 c-21 -21 -13 -45 18 -58 31 -13 40 -30 17 -30 -7 0 -19 6
-25 12 -10 10 -15 10 -22 -2 -12 -19 -5 -27 30 -35 65 -14 95 45 38 73 -35 16
-38 35 -4 22 18 -6 26 -5 29 5 3 7 3 16 0 19 -11 11 -69 6 -81 -6z"/>
<path d="M130 65 c0 -58 2 -65 20 -65 15 0 20 7 20 25 0 20 5 25 26 25 20 0
25 -4 22 -22 -2 -17 2 -23 16 -23 16 0 18 9 20 63 1 57 -1 62 -20 62 -17 0
-20 -5 -16 -25 4 -22 1 -25 -22 -25 -21 0 -26 5 -26 25 0 18 -5 25 -20 25 -18
0 -20 -7 -20 -65z"/>
<path d="M287 68 l1 -63 48 0 c29 0 49 5 52 13 2 8 -8 12 -32 12 -42 0 -49 17
-9 22 39 4 42 28 4 28 -17 0 -31 5 -31 10 0 6 16 10 36 10 56 0 37 24 -22 28
l-49 3 2 -63z"/>
<path d="M415 65 l0 -65 46 0 c32 0 49 5 53 15 4 12 -3 15 -29 15 -41 0 -47
17 -8 22 39 4 42 28 4 28 -17 0 -31 5 -31 10 0 6 14 10 30 10 20 0 30 5 30 15
0 11 -12 15 -47 15 l-48 0 0 -65z"/>
<path d="M540 65 c0 -58 2 -65 20 -65 13 0 20 7 20 20 0 14 7 20 23 20 29 0
47 18 47 45 0 32 -20 45 -67 45 l-43 0 0 -65z m80 20 c0 -8 -9 -15 -20 -15
-11 0 -20 7 -20 15 0 8 9 15 20 15 11 0 20 -7 20 -15z"/>
</g>
</svg>
