<?xml version="1.0" encoding="UTF-8"?>
<svg xmlns="http://www.w3.org/2000/svg" xmlns:xlink="http://www.w3.org/1999/xlink" width="18px" height="18px" viewBox="0 0 18 18" version="1.1">
<g id="surface1">
<path style=" stroke:none;fill-rule:nonzero;fill:rgb(14.117647%,53.333333%,100%);fill-opacity:1;" d="M 6.417969 9.792969 L 11.871094 9.792969 L 11.871094 8.175781 L 6.417969 8.175781 L 6.417969 4.8125 C 6.417969 3.050781 7.851562 1.617188 9.609375 1.617188 C 11.371094 1.617188 12.804688 3.050781 12.804688 4.8125 L 14.421875 4.8125 C 14.421875 2.15625 12.261719 0 9.609375 0 C 6.957031 0 4.800781 2.15625 4.800781 4.8125 L 4.800781 8.175781 L 3.585938 8.175781 L 3.585938 9.792969 L 4.800781 9.792969 L 4.800781 16.382812 L 3.578125 16.382812 L 3.578125 18 L 14.195312 18 L 14.195312 16.382812 L 6.417969 16.382812 Z M 6.417969 9.792969 "/>
</g>
</svg>
