<?xml version="1.0" encoding="UTF-8"?>
<svg xmlns="http://www.w3.org/2000/svg" xmlns:xlink="http://www.w3.org/1999/xlink" width="18px" height="18px" viewBox="0 0 18 18" version="1.1">
<g id="surface1">
<path style=" stroke:none;fill-rule:nonzero;fill:rgb(0%,0%,0%);fill-opacity:1;" d="M 6.253906 9.605469 L 12.039062 9.605469 L 12.039062 8.363281 L 6.253906 8.363281 L 6.253906 4.714844 C 6.253906 2.800781 7.8125 1.242188 9.726562 1.242188 C 11.644531 1.242188 13.203125 2.800781 13.203125 4.714844 L 14.441406 4.714844 C 14.441406 2.113281 12.328125 0 9.726562 0 C 7.128906 0 5.015625 2.113281 5.015625 4.714844 L 5.015625 8.363281 L 3.566406 8.363281 L 3.566406 9.605469 L 5.015625 9.605469 L 5.015625 16.757812 L 3.558594 16.757812 L 3.558594 18 L 14.417969 18 L 14.417969 16.757812 L 6.253906 16.757812 Z M 6.253906 9.605469 "/>
</g>
</svg>
